<svg id="Layer_1" data-name="Layer 1" xmlns="http://www.w3.org/2000/svg" viewBox="0 0 256 256"><defs><style>.cls-1{fill:#004876;}.cls-2{fill:#fff;}</style></defs><title>logo</title><rect class="cls-1" width="256" height="256"/><path class="cls-2" d="M7121.45,7187.64A13,13,0,0,1,7111,7193c-8.06,0-13.76-6.14-13.76-16.19,0-9.86,5.63-16.25,13.76-16.25a12.92,12.92,0,0,1,10.43,5.44v-16.45h4.8v42.69h-4.8Zm0-17.79a11.61,11.61,0,0,0-9.28-5c-6.21,0-9.92,5.12-9.92,12s3.71,11.9,9.92,11.9a11.5,11.5,0,0,0,9.28-4.86Z" transform="translate(-7071.5 -7071.5)"/><path class="cls-2" d="M7131.18,7153.15a3.23,3.23,0,1,1,6.46,0,3.23,3.23,0,0,1-6.46,0Zm.83,8.19h4.8v30.91H7132Z" transform="translate(-7071.5 -7071.5)"/><path class="cls-2" d="M7144.94,7196.6c2.56,3.07,5.63,4.22,10,4.22,5.12,0,9.92-2.5,9.92-9.28v-4.42a12.91,12.91,0,0,1-10.37,5.5c-8.06,0-13.76-6-13.76-16s5.63-16.06,13.76-16.06a12.81,12.81,0,0,1,10.37,5.44v-4.67h4.8v30c0,10.24-7.17,13.44-14.72,13.44-5.25,0-8.83-1-12.48-4.61Zm20-26.75a11.39,11.39,0,0,0-9.22-5c-6.21,0-9.92,4.93-9.92,11.78s3.71,11.77,9.92,11.77a11.44,11.44,0,0,0,9.22-5.06Z" transform="translate(-7071.5 -7071.5)"/><path class="cls-2" d="M7174.63,7153.15a3.23,3.23,0,1,1,6.46,0,3.23,3.23,0,0,1-6.46,0Zm.83,8.19h4.8v30.91h-4.8Z" transform="translate(-7071.5 -7071.5)"/><path class="cls-2" d="M7187,7185.79v-20.22h-5.12v-4.22H7187v-8.45h4.8v8.45h6.27v4.22h-6.27v19.2c0,2.3,1,4,3.14,4a4.63,4.63,0,0,0,3.26-1.28l1.41,3.58a7.84,7.84,0,0,1-5.76,2C7189.29,7193,7187,7190.39,7187,7185.79Z" transform="translate(-7071.5 -7071.5)"/><path class="cls-2" d="M7220.33,7188.73a13.37,13.37,0,0,1-10.24,4.29c-5.25,0-10.81-3.52-10.81-10.24,0-6.91,5.57-10.18,10.81-10.18,4.22,0,7.74,1.34,10.24,4.22v-5.57c0-4.16-3.33-6.53-7.81-6.53A12.28,12.28,0,0,0,7203,7169l-2.24-3.33a16.18,16.18,0,0,1,12.35-5.12c6.53,0,12,2.94,12,10.43v21.25h-4.8Zm0-8.83a10.35,10.35,0,0,0-8.51-3.84c-4.48,0-7.62,2.82-7.62,6.78s3.14,6.72,7.62,6.72a10.35,10.35,0,0,0,8.51-3.84Z" transform="translate(-7071.5 -7071.5)"/><path class="cls-2" d="M7230.89,7149.56h4.8v42.69h-4.8Z" transform="translate(-7071.5 -7071.5)"/><path class="cls-2" d="M7140.24,7203.86c7.13,0,11.45,3.1,13.75,6.26l-6,5.62a8.43,8.43,0,0,0-7.34-3.74c-5.54,0-9.43,4-9.43,10.08s3.89,10.15,9.43,10.15a8.78,8.78,0,0,0,7.34-3.75l6,5.54c-2.3,3.24-6.62,6.34-13.75,6.34-10.73,0-18.43-7.56-18.43-18.29S7129.51,7203.86,7140.24,7203.86Z" transform="translate(-7071.5 -7071.5)"/><path class="cls-2" d="M7176.53,7235.9c-2.38,2.81-6.48,4.46-11,4.46-5.54,0-12.1-3.75-12.1-11.52,0-8.14,6.55-11.09,12.1-11.09,4.61,0,8.71,1.44,11,4.25v-4.82c0-3.53-3-5.83-7.63-5.83a14.64,14.64,0,0,0-10.15,4.1l-3.46-6.12a22.81,22.81,0,0,1,15.19-5.47c7.92,0,15.19,3.17,15.19,13.18v22.47h-9.14Zm0-9.07c-1.51-2-4.39-3-7.34-3-3.6,0-6.55,1.87-6.55,5.26s3,5.11,6.55,5.11c3,0,5.83-1,7.34-3Z" transform="translate(-7071.5 -7071.5)"/><path class="cls-2" d="M7190.42,7204.72h9.15v4.75a14.88,14.88,0,0,1,11.09-5.54v8.93a11.62,11.62,0,0,0-2.52-.29c-3,0-7.06,1.73-8.57,4v23h-9.15Z" transform="translate(-7071.5 -7071.5)"/><path class="cls-2" d="M7215.4,7241.8c2.81,3.1,6.48,4.32,10.87,4.32s9.58-1.94,9.58-8.79v-3.53a13.54,13.54,0,0,1-10.73,5.47c-8.71,0-15.34-6.12-15.34-17.71,0-11.38,6.55-17.71,15.34-17.71a13.39,13.39,0,0,1,10.73,5.33v-4.46h9.22v32.4c0,13.25-10.22,16.49-18.79,16.49-6,0-10.58-1.37-15-5.18Zm20.45-25.85a9.92,9.92,0,0,0-7.85-4c-5.18,0-8.78,3.6-8.78,9.58s3.6,9.58,8.78,9.58a10.13,10.13,0,0,0,7.85-4Z" transform="translate(-7071.5 -7071.5)"/><path class="cls-2" d="M7247.59,7222.07c0-9.87,6.91-18.22,18.36-18.22s18.43,8.35,18.43,18.22-6.91,18.29-18.43,18.29S7247.59,7232,7247.59,7222.07Zm27.29,0c0-5.4-3.24-10.08-8.93-10.08s-8.86,4.68-8.86,10.08,3.17,10.15,8.86,10.15S7274.88,7227.55,7274.88,7222.07Z" transform="translate(-7071.5 -7071.5)"/></svg>