<svg id="Layer_1" data-name="Layer 1" xmlns="http://www.w3.org/2000/svg" viewBox="0 0 256 256"><defs><style>.cls-1{fill:#004876;}.cls-2{fill:#fff;}</style></defs><title>dc_logo2</title><rect class="cls-1" width="256" height="256"/><path class="cls-2" d="M7127.61,7211a3.32,3.32,0,0,1-1.91-2.58,5,5,0,0,0,2.35-1.24,5,5,0,0,1,2.35-1.23,9.67,9.67,0,0,1,4.87.16,9.6,9.6,0,0,0,4.88.16l.38-.1q-1.17-1.34-.54-2.43a5.19,5.19,0,0,1,2-1.86,16.14,16.14,0,0,1,3-1.29q1.61-.52,2.38-.73a2.35,2.35,0,0,1,1,0,3.44,3.44,0,0,1,.9.28q-1.08-1.77-.29-2.29a5.93,5.93,0,0,1,1.75-.77,4.24,4.24,0,0,1,3.48.32,4,4,0,0,0,3.28.37,23.86,23.86,0,0,0-1.33-3.87,6,6,0,0,1-.12-4c0-.13.15-.45.57-1a3.41,3.41,0,0,0,.71-1.21l-.2-.77a20.3,20.3,0,0,0-1.67-4.39,21.19,21.19,0,0,1-1.72-4.59l-1.52-5.77.56-1.79-.25-1-1.47-1.67-.1-.38a13.19,13.19,0,0,1-.35-3.3q0-2,.1-3.93t.19-4a23.83,23.83,0,0,0,0-3.18,2.8,2.8,0,0,0-.61-.76,2.65,2.65,0,0,1-.61-.76,3.74,3.74,0,0,1-.49-1.1l-.41-1.54a22.39,22.39,0,0,1-.55-9.52q.76-4.52,1.33-9.4a8.77,8.77,0,0,0,4.17,1.78,11.26,11.26,0,0,1,.46-3.31,3.11,3.11,0,0,1,2.41-2.18l.38-.1a52.21,52.21,0,0,1,7.08,4.62,31.11,31.11,0,0,1,6,6.12l1.87,3.21a7,7,0,0,1,1.52,2.27,6.85,6.85,0,0,0,1.52,2.27q.24.14-.12,1.47a3,3,0,0,1-.9,1.68q-2,.94-1.35,2.31a19.41,19.41,0,0,0,2.21,3.33q1.54,2,3.09,4.33a10.89,10.89,0,0,1,1.73,5.41,4.39,4.39,0,0,0-1.74-.36,3.37,3.37,0,0,1-1-.88,3.21,3.21,0,0,1-.52-.79,6.75,6.75,0,0,1,.06-1.35,4.72,4.72,0,0,1,.25-1.4l-.25-1a4.6,4.6,0,0,0-.87-1.73,1.41,1.41,0,0,0-1.57-.51q-.58.15-.9,1.27c-.22.74-.42,1.55-.6,2.42a18.12,18.12,0,0,0-.35,2.56,8.17,8.17,0,0,0,0,1.45,1.37,1.37,0,0,0,1.82,1.06,7.78,7.78,0,0,0,2.19-.68l2.13,5-1.53,1.22a7.22,7.22,0,0,1,1.34,1.19c.57.6,1,1,1.15,1.24a.56.56,0,0,0,.29.33,2.42,2.42,0,0,1,.54.48,2.19,2.19,0,0,0,.54.48q0,.19-.26.58a5.75,5.75,0,0,0-.45.63l-.14.24a10.56,10.56,0,0,1,.4,3.08,13,13,0,0,1-.35,2.56,16.08,16.08,0,0,0-.41,2.37,7.88,7.88,0,0,0,.3,2.7,7,7,0,0,1-2.84.13q-1.5-.22-.89,2.09a3.93,3.93,0,0,0,1.45,2.39,6.93,6.93,0,0,0,2.21,1l2.42.6a3.09,3.09,0,0,1,1.9,1.35,5.77,5.77,0,0,0,.64,1.27q.54.89,1.16,2.06t1.09,2.18a3.11,3.11,0,0,0,.71,1.15.7.7,0,0,0,1,.57,2.94,2.94,0,0,0,1.14-1.12l1.08,1.77q-2.65.9-1.83,4,.05.19.41.41l.61.35.39-.1a1.48,1.48,0,0,0,1.09-1.73,11.69,11.69,0,0,0-.32-2.38,12.12,12.12,0,0,1,1.44,3.12l.73,2.79q.38,1.44,1.1,3.41a34.57,34.57,0,0,0,2.6,5.18q-1.25-.08-1,1.2a10.57,10.57,0,0,0,1.07,2.9q.84,1.63,1.78,3.23a11.61,11.61,0,0,1,1.09,2.18l.2.77q.39.72,1.26,2c.57.88,1.19,1.78,1.84,2.7s1.26,1.8,1.82,2.61a19,19,0,0,0,1.13,1.55q.88,1,3.71,3.55t6.21,5.25a62.53,62.53,0,0,0,6.57,4.65q3.18,1.94,4.72,1.53l.38-.1a9.92,9.92,0,0,0,1.09-1.32c.51-.68.88-1.06,1.14-1.12l.38-.1a.41.41,0,0,0,.26-.17c0-.08.2-.16.46-.22l.44.09.38-.1c.13,0,.32.19.59.67a2.35,2.35,0,0,0,.64.86,1.35,1.35,0,0,0,1.42-.48c.37-.44.79-.24,1.29.59l.35,1.35.3,1.15c.19.23.66.31,1.4.25a6.62,6.62,0,0,1,1.54,0l.2.77-.71,1.21a2.82,2.82,0,0,0-.52,1.16,8,8,0,0,0,.68,2.6,8.11,8.11,0,0,1,.68,2.6,6.33,6.33,0,0,1-1,1.7q-.9,1.27-.8,1.65a9.36,9.36,0,0,0-.1,1.57,7,7,0,0,0,.09,1.52,2.93,2.93,0,0,1-2.39-.5,2.93,2.93,0,0,0-2.39-.5.57.57,0,0,0-.33.29,3.82,3.82,0,0,0-.15,1.38,3.92,3.92,0,0,1-.15,1.38l-.77.2c-.16-.1-.7-.43-1.6-1a4.82,4.82,0,0,0-1.55-.82,7.93,7.93,0,0,0-3.3.35,12.32,12.32,0,0,1-3.13.62,3.82,3.82,0,0,1-2.69-.83,8.15,8.15,0,0,1-2.12-3.76,2.45,2.45,0,0,0-1,.66,2.69,2.69,0,0,1-.76.61.18.18,0,0,0-.14.24q-1.11-4.23-2.5-4.79a4.23,4.23,0,0,0-2.73-.21,15.54,15.54,0,0,1-2.55.46q-1.2.12-2.06-3.16c-1,.27-1.53.33-1.49.19s-.37.3-1.19,1.34l-1.21-4.62c0-.13-.21-.26-.51-.38a1.22,1.22,0,0,0-.65-.14l-.77,4.11a9.7,9.7,0,0,1-1-1.7,13.47,13.47,0,0,1-.77-1.75l-.2-.77a1.59,1.59,0,0,1-.51,0,1.65,1.65,0,0,0-.51,0l-2.44,1.67-.25-1a2.34,2.34,0,0,1,0-1.54,2.36,2.36,0,0,0,0-1.54,5.76,5.76,0,0,0-2.5-2.84,13,13,0,0,0-3.25-1.82,9.17,9.17,0,0,1-.85,3,5.93,5.93,0,0,1-1.64,2.38,8.73,8.73,0,0,0-1.17.62q-1,.57-2.25,1.21l-2.44,1.26a9.91,9.91,0,0,1-1.56.72,1.63,1.63,0,0,0-1,1.2q-.11.75-.29,1.62a5.35,5.35,0,0,1-.61,1.6,3.08,3.08,0,0,1-2,1.13c-.64.17-1,0-1.16-.52-.37,1.2-.47,1.87-.29,2a4.89,4.89,0,0,1,.67,1.78l1-.25c.13.51-.24,1.3-1.13,2.35a40.19,40.19,0,0,1-3.14,3.29,32.14,32.14,0,0,1-3.73,3,10.77,10.77,0,0,1-2.87,1.58,2.34,2.34,0,0,1-1,0,3.27,3.27,0,0,1-.9-.28,4.72,4.72,0,0,1,0,1.33,11.59,11.59,0,0,1-.15,1.38l-.33.29-.63,0a4.11,4.11,0,0,1-1,0,12.44,12.44,0,0,1-1.28-.18l.91,3.46-.38.1a1.57,1.57,0,0,1-1,.06,18.27,18.27,0,0,1-2.56.05,1.83,1.83,0,0,1-1.76-1.59,1.55,1.55,0,0,1,.22-1.5,1.79,1.79,0,0,0,.17-1.69,7.59,7.59,0,0,0-.65-1.68,1.07,1.07,0,0,0-1.36-.47,1.74,1.74,0,0,0-1.31,1.68,12,12,0,0,0,0,2.87,22.27,22.27,0,0,0,.57,2.94l.43,1.63-1.73.46c-.77.2-1.6.46-2.48.75l-2.45.85c-.75.27-1.32.45-1.71.55a3,3,0,0,0-1,.57,3.21,3.21,0,0,0-.74.71,6,6,0,0,0-1.94-4.63q-2.15-2.31-4.07-1.81a10,10,0,0,0,2.57,4.67,9.6,9.6,0,0,1,2.51,4.48,4.18,4.18,0,0,1,.08.7,4,4,0,0,0,.08.7,18.26,18.26,0,0,0-4.18-2.6,11,11,0,0,1-3.6-2.75c0-.13-.21-.25-.51-.38a5.27,5.27,0,0,1-.7-.33l-.58.15a1,1,0,0,0-.69.9,9.85,9.85,0,0,0-.1,1.57,6.54,6.54,0,0,0,.21,1.59l.25,1q-1.92.51-2.71-.52a15.24,15.24,0,0,1-1.4-2.2,4.74,4.74,0,0,0-1.49-1.77q-.88-.59-2.55.88a19.8,19.8,0,0,0-.2,3.14q0,1.64,0,3.28l-.77.2a10.94,10.94,0,0,1-1.76-1.6q-1.27-1.31-2.23-1.06l-.38.1a10.67,10.67,0,0,0-.15,1.38,4.7,4.7,0,0,0,0,1.33q-2.17.37-5-1.67a8,8,0,0,1-3.36-4.16,4.57,4.57,0,0,0,1.73-.87,1.57,1.57,0,0,0,.46-1.77,7.09,7.09,0,0,0-2.29-3.61,6.51,6.51,0,0,1-2.19-3.23,2.81,2.81,0,0,1,0-1.64,2.84,2.84,0,0,0,0-1.64,1.58,1.58,0,0,0-2.19-1.28,1.55,1.55,0,0,0-1.29,1.37,1.54,1.54,0,0,1-1.29,1.37.39.39,0,0,1-.31,0,.41.41,0,0,0-.31,0,36.49,36.49,0,0,1-3.49-5.46,29.5,29.5,0,0,1-2.15-5.81q-.91-3.46-1.3-5.72a27.57,27.57,0,0,1-.06-6.46,1,1,0,0,1,.54-1.07,7.43,7.43,0,0,1,1.13-.4,2.89,2.89,0,0,0,1-.47c.29-.21.33-.71.13-1.47l-1.92.51q-.61-2.31.08-3.21a7.94,7.94,0,0,1,1.55-1.54,10.15,10.15,0,0,0,1.58-1.44q.71-.81.21-2.73l-.1-.38c0-.13-.17-.26-.42-.4l-.61-.35q.36-1.74.58-3.65c.14-1.27.34-2.49.58-3.65a14.58,14.58,0,0,1,1.17-3.39,6.55,6.55,0,0,1,2.57-2.73c.09-.16.5-.3,1.22-.42s1.15-.2,1.28-.23a2.53,2.53,0,0,0,.58-1.7,17.66,17.66,0,0,1,0-1.86,3.23,3.23,0,0,1,.85-1.87,5.66,5.66,0,0,1,2.9-1.48.59.59,0,0,1,.44.09c.13,0,.32.05.58.26s.45.29.58.26l.44.09a.57.57,0,0,0,.33-.29c.13,0,.26-.2.38-.51s.25-.48.38-.51l.33-.29a1.55,1.55,0,0,1,1.5.22q.54.48,2.08.07a3,3,0,0,0,2.31-2.56c.26-1.37.7-2.14,1.35-2.31l.44.09a2.75,2.75,0,0,1,1,.16,2.67,2.67,0,0,0,1,.16,3.44,3.44,0,0,0,.86-.64,3.47,3.47,0,0,1,.86-.64l.19,0c.13,0,.18-.08.17-.15s0-.11.17-.15l.24.14m-10.54,49c.3,1.15,1.31,2,3,2.49a18.66,18.66,0,0,1,3.78,1.47l4.68,3.71a8.44,8.44,0,0,0,4.23.84,22.66,22.66,0,0,1,4.52.35c.38-.1,1.26-.29,2.62-.59s2.24-.49,2.62-.59a40.8,40.8,0,0,0,5.86-2,33.13,33.13,0,0,0,4.6-2.44,51,51,0,0,0,4.5-3.24l5.35-4.29a23.37,23.37,0,0,0,1.86-1.93q1.19-1.34,2.5-2.61t2.38-2.27c.71-.67,1.22-1,1.51-.91l4.53-7.78,2.31-.61,1.16,4.43,2.31-.61a1.71,1.71,0,0,0-.22-.46,1.56,1.56,0,0,1-.22-.46l-1.47-1.67-.1-.38a4.71,4.71,0,0,1,.07-2.08,1.79,1.79,0,0,1,1.24-1.56l.43.09.19-.05,1,.57,3,1.07a3.32,3.32,0,0,0,1.31-3.64q-.25-1-1.9-1.35l-2.51-.57a13,13,0,0,1,.51-1.57,3.2,3.2,0,0,0,.32-1.52l-.15-.58q-.1-.38-.5-1.51a15.06,15.06,0,0,0-1-2.21,8.65,8.65,0,0,0-1.3-1.82,1.11,1.11,0,0,0-1.43-.34q-.19,0-.54,1.07a3.27,3.27,0,0,1-.68,1.31l-1.73.46q-.55-1.29-1.78-3.64t-3.35-1.79a3.06,3.06,0,0,0-2.19,2.63l-3.41-2.8a.82.82,0,0,1,.16-.56l.35-.61q.81-.83,1.31-1.27a2.45,2.45,0,0,0,.69-.9,2.38,2.38,0,0,0,.11-1.16,18.43,18.43,0,0,0-.49-2.24,2.79,2.79,0,0,0-2.36,2.37,15,15,0,0,1-1,3.65,6.75,6.75,0,0,0-2.24-3.42,9,9,0,0,0-2.72-1.34,22.4,22.4,0,0,0-2.3-.53,1.13,1.13,0,0,1-1-1.17,7,7,0,0,0-.26,2.13,2.65,2.65,0,0,0,.61.77,2.76,2.76,0,0,1,.61.76l.1.38a.58.58,0,0,1-.09.44,8.39,8.39,0,0,1-2.51.25,9.12,9.12,0,0,0-2.7.3l-1,.25a5,5,0,0,1-.71.81,2.72,2.72,0,0,1-.76.61l-2.19-1.28-.44-.09-.33.29-3.2,2.69a60.47,60.47,0,0,1-7.2,2.72,78.6,78.6,0,0,0-8.14,3.07,25.55,25.55,0,0,0-7,4.52,12.08,12.08,0,0,0-3.75,6.85c-.09.16,0,.62.26,1.37s.42,1.2.45,1.32a12.72,12.72,0,0,1-1.78,4.58,6,6,0,0,0-.66,4.91,5.92,5.92,0,0,0,1.11,2.28,6,6,0,0,1,1.11,2.28,4.25,4.25,0,0,1,0,2.15A4.23,4.23,0,0,0,7114.52,7260.49Zm45-128.45c-.29-.06-.38.1-.28.49s.28.54.54.48Q7160.6,7132.37,7159.48,7132Zm31.43,68.65.15.58a.8.8,0,0,1-.34-.53Z" transform="translate(-7071.5 -7071.5)"/><path class="cls-2" d="M7274.27,7215.4a7.6,7.6,0,0,1-1.2-1.51,7.85,7.85,0,0,0-1.2-1.51,1.1,1.1,0,0,0-1.29-.35,12.7,12.7,0,0,1-1.56.45,6.72,6.72,0,0,1-1.47.18c-.44,0-.76-.32-.93-1a20.44,20.44,0,0,1-1.11,2.67q-.66,1.33-1.2,2.49l-1.16-2.31A2.17,2.17,0,0,0,7262,7216a6.12,6.12,0,0,0-.18,2.09c.06.71.12,1.35.18,1.91s0,.88-.09.93q-1.07.53-1.87-1.07a4,4,0,0,1-.45-2.44,4.42,4.42,0,0,0-.54-2.62q-1.42-2.84-3.74-1.69a.57.57,0,0,0-.27.36q-.18.09-.36.84c-.12.5-.21.85-.27,1-.24.12-.93.43-2.09.94a6.61,6.61,0,0,0-2,1.11c-.12.06-.22.37-.31.93a8.39,8.39,0,0,1-.22,1.11l-1.87,2.49-1.51-.8-.53.27a2.17,2.17,0,0,1-.67.22,1.66,1.66,0,0,0-.49.13,5.31,5.31,0,0,0-1.91,1.51,5.28,5.28,0,0,1-1.91,1.51,1.57,1.57,0,0,1-1.33.22q-.44-.22-1.51.31l-.71.36a5.58,5.58,0,0,0-.58,1.74,10.48,10.48,0,0,0-.31,1.82,3.22,3.22,0,0,1-.89-.67,3.78,3.78,0,0,1-.8-.93,7.88,7.88,0,0,0,.09-1.6,4.82,4.82,0,0,0-.18-1.69l-.09-.62q-.71-1.42-1.78-.89a1,1,0,0,0-.58,1.29,14.93,14.93,0,0,0,.67,1.56q-1.25.62-1.78-1.11c-.36-1.16-.71-1.79-1.07-1.91a1.57,1.57,0,0,0-.84.09l-1.25.4a3.14,3.14,0,0,1-1.25.18,1.17,1.17,0,0,1-.93-.76,4.31,4.31,0,0,1-.49-1.64,3.73,3.73,0,0,0-.4-1.47l-.45-.89c-.06-.12-.3-.15-.71-.09a3.4,3.4,0,0,0-.8.18c-.83.42-1.29.83-1.38,1.25a3.45,3.45,0,0,0,0,1.25,5.51,5.51,0,0,1,0,1.2q0,.58-1.11,1.11l-.71-1.42a2.09,2.09,0,0,0-.71-.53,2,2,0,0,1-.71-.53,2.29,2.29,0,0,1,0-1.78l.27-.8a2.11,2.11,0,0,0-.58-1.16,6.71,6.71,0,0,1-.76-1.07,2.32,2.32,0,0,0-.75.71,2.37,2.37,0,0,1-.76.71,2.93,2.93,0,0,0-1-.62c-.59-.29-1-.41-1.07-.35l-.71.36-.71.36a3.27,3.27,0,0,0-.09.93,1.09,1.09,0,0,0,.36.93q.62.8,1.25.71a4,4,0,0,0,1.25-.4,4.81,4.81,0,0,1,1-.4q.4-.09.85.8l-4.45,2.23a7.07,7.07,0,0,0-2-2.67,5.19,5.19,0,0,0-2-.89c-.65-.12-1.23-.24-1.74-.35a1.82,1.82,0,0,1-1.2-1.07l-.18-.36a.58.58,0,0,0,.27-.36c.12-.35.24-.56.35-.62l-.27-.53a1.41,1.41,0,0,0-1.42-.84,1.41,1.41,0,0,1-1.42-.84,2.17,2.17,0,0,1-.22-.67,1.65,1.65,0,0,0-.13-.49,1.76,1.76,0,0,1,0-.76,1.72,1.72,0,0,0,0-.76c-.12-.24-.55-.35-1.29-.35s-1.17-.12-1.29-.35a.18.18,0,0,1-.27-.09l-.18-.36a1.91,1.91,0,0,1,0-2.13,7.82,7.82,0,0,1,1.73-1.65c.71-.5,1.41-1,2.09-1.6a2.2,2.2,0,0,0,.93-1.91,1.41,1.41,0,0,0-1.69-.27.4.4,0,0,0-.22.22.4.4,0,0,1-.22.22l-.18.09a3.44,3.44,0,0,0-.67,1.11,3.39,3.39,0,0,1-.67,1.11l-.53.27-.36.18-.8-.27a3.38,3.38,0,0,0-.62.53c-.3.3-.41.51-.35.62-.18-.06-.37-.29-.58-.71l-.4-.8a4.75,4.75,0,0,1-.4-2.58,16.25,16.25,0,0,1,.57-3.07c.29-1,.53-2,.71-2.8a2.93,2.93,0,0,0,0-1.78,4.46,4.46,0,0,0-1.92-2,4.11,4.11,0,0,1-1.83-1.87,4,4,0,0,1-.14-3.16,6.41,6.41,0,0,0,0-3.87l-1.34-2.67q-.09-.62.27-.8a2.43,2.43,0,0,0,.71-.58,1.54,1.54,0,0,0,.35-1.07,5.46,5.46,0,0,0-.71-2.09l1.24-.62,1.69,3.38q.18-.53.62-1.65c.3-.74.56-1.17.8-1.29a16.26,16.26,0,0,1,2.58-.4c.65,0,1.28,0,1.87,0a3.38,3.38,0,0,0,1.07-.09.57.57,0,0,0,.27-.36l.09-.27a.58.58,0,0,0,0-.45q-1-.18-2.89-.66a4.5,4.5,0,0,0-3.16.14l-1.16-2.31c.3,0,.62,0,1,0a2.24,2.24,0,0,1,.8,0l.36-.18.36-.18a2.43,2.43,0,0,1-.09-.84,2.37,2.37,0,0,0-.09-.85l.36-.18.36-.18a6.86,6.86,0,0,0,1.56,2,4.06,4.06,0,0,0,2.63,1,2.27,2.27,0,0,0,.53-.49,2.32,2.32,0,0,1,.53-.49l-2.94-5.87a15.69,15.69,0,0,1-3-.18q-2.36-.26-2.54-.62l-.18-.36a21.18,21.18,0,0,1,.26-3.69q.27-1.47,2.58-2.63l1.07-.53a1.28,1.28,0,0,1,.84.35,2.39,2.39,0,0,1,.49.53,3.92,3.92,0,0,0,.31-1.82q0-1.47.09-3.16a21.72,21.72,0,0,1,.26-3c.15-.89.4-1.42.75-1.6q.09.18.76,1.73t1.43,3.29l1.43,3.29c.45,1,.7,1.62.76,1.73s-.16.34-.84.31a4,4,0,0,0-1.2,0,4.61,4.61,0,0,0-.18,1.42,4.79,4.79,0,0,1-.09,1.16q-.18.54.27.53a.56.56,0,0,0,.36.27l3.73-1.87a1.2,1.2,0,0,1,0,.67c-.06.33-.15.52-.27.58-.12.36,0,.53.49.53s.43.12,0,.36l2.58-.62-.53-1.07-2.14-4.27,2.31-1.16,2.31.18a7.4,7.4,0,0,1,1.65.18q.76.18.67,0-.27-.09-1.11-.44t-1.87-.84c-.68-.32-1.3-.6-1.87-.84s-.91-.32-1-.27c-.12-.53.06-.77.53-.71s.9.1,1.29.13a.66.66,0,0,0,.75-.49q.18-.53-.8-2.49a5.3,5.3,0,0,0-1.51-1.91,6.91,6.91,0,0,1-1.78-2.44c-.06-.12.37-.22,1.29-.31s1.35-.19,1.29-.31a2,2,0,0,0,.8,0,2.21,2.21,0,0,1,.8,0l.36-.18.18-.09a1,1,0,0,0,.09-.93c-.12-.38-.12-.61,0-.67s.34-.87.84-2.09a6.73,6.73,0,0,1,1.38-2.36,7,7,0,0,0,1.33-1.34,10.09,10.09,0,0,0,1-.93,2.27,2.27,0,0,1,.53-.49,3.35,3.35,0,0,1,.8-.18,6.48,6.48,0,0,0,2-.54,14.22,14.22,0,0,0,2.76-.71c.12-.06.13.12,0,.53s-.19.88-.31,1.38-.24.94-.36,1.29-.12.5,0,.44a4.12,4.12,0,0,0,1.87-1.83,7.63,7.63,0,0,0,.8-2.4,20.88,20.88,0,0,1,.44-2.22,2.17,2.17,0,0,1,1.16-1.47,1.94,1.94,0,0,1,1.47,0c.62.21,1.3.46,2,.75a17.67,17.67,0,0,0,2.13.71,2.27,2.27,0,0,0,1.56,0,.58.58,0,0,0,.27-.36c0-.29,0-.73-.09-1.29a3.79,3.79,0,0,0-.27-1.2.47.47,0,0,0-.58-.27l-.89.22a2.15,2.15,0,0,1-1,0c-.33-.06-.64-.38-.94-1q-.27-.53.53-.93a8.39,8.39,0,0,1,1.69-.62,6.36,6.36,0,0,1,1.33-.22c.29,0,.09,0-.62.09l5.61,1.86c.24.18.44.08.62-.31a2.48,2.48,0,0,0,.27-1,9.12,9.12,0,0,0-.45-2.22l.89-.45a7.5,7.5,0,0,0,1.87-.49,7.83,7.83,0,0,1,1.87-.49q.18.36,1.16,1.87a8.91,8.91,0,0,0,1.33,1.78c.06.12.21.19.45.22a3.49,3.49,0,0,1,.62.13,3.74,3.74,0,0,0,.13-.85,1.69,1.69,0,0,0,0-.76l-3.39-6.76.89.44,6.77,8.18,2.31-5.16V7122c-.3-.59-.86-.68-1.69-.27a1.7,1.7,0,0,1-2-.09q-.27-1,1.11-1.56c.92-.38,1.44-.61,1.56-.67l1.6-.8a6.29,6.29,0,0,1,1.2.84,12,12,0,0,1,1.47,1.38l.09.18a3,3,0,0,1,.22,2,8.07,8.07,0,0,1-.67,2q.44-.89.93-.8a2.5,2.5,0,0,1,1,.49,9.34,9.34,0,0,1,1,.84c.29.3.56.39.8.27a3.28,3.28,0,0,0,.67-.67c.32-.38.46-.64.4-.76-.12.36,0,.58.22.67a4.77,4.77,0,0,0,1.2.18c.53,0,1,0,1.47,0a1.7,1.7,0,0,1,1,.27,13.22,13.22,0,0,0,1.11,1.56,13.57,13.57,0,0,1,1.11,1.56l2.67,5.33c.3.59.62.88,1,.84s.74-.07,1.16-.13l1.25-.18a1.92,1.92,0,0,1,1.25.27.81.81,0,0,1,0,.58l-.22.67-.18.09-.36.18q-1.07.09-3.51.09c-1.63,0-2.68,0-3.16-.09a1.2,1.2,0,0,0-.49,1.47,13.24,13.24,0,0,0,.58,1.38,6.68,6.68,0,0,1-3,.63,9.7,9.7,0,0,1-3.11-.44,1.3,1.3,0,0,0,.35-1.51l-.54-1.07a4.65,4.65,0,0,0-.49-.76,3.93,3.93,0,0,1-.4-.58c-.06-.12-.49-.23-1.29-.35a10.79,10.79,0,0,1-1.73-.35l-.18.09a3.5,3.5,0,0,0-1.87,2q-.45,1.34-1.07,2.76l-.27.36a.57.57,0,0,1-.44,0,7.8,7.8,0,0,1-1-.49c-.5-.27-.82-.37-.93-.31a4.75,4.75,0,0,0-1.73.76c-.86.51-1.41.82-1.64.94l-1.07-.35a1.87,1.87,0,0,0-1-.18l-.18.09a1.64,1.64,0,0,0-.75,1.16c-.15.6-.3,1.26-.44,2l-.44,2.22a2.8,2.8,0,0,1-1,1.74,11.62,11.62,0,0,0-1.47,1.07q-1.11.89-2.53,1.83t-2.58,1.74a16.73,16.73,0,0,1-1.51,1,8.44,8.44,0,0,0-1.07,1,8.1,8.1,0,0,1-1.07,1l-4.62,2.32a2.59,2.59,0,0,1-.22,1.56,3,3,0,0,1-1.2.94q-1.43.71-2-.35t-2-.35a1.94,1.94,0,0,0-1.07,1,1.94,1.94,0,0,1-1.07,1,1.54,1.54,0,0,1-1.51.09,1.55,1.55,0,0,0-1.51.09,6.9,6.9,0,0,0,1.78,2.44q.89.67,2.49,1.64a1.8,1.8,0,0,1,.44.22,1.45,1.45,0,0,0,.45.22,1.57,1.57,0,0,1,.44.44,2,2,0,0,1,.09,1.73,4.63,4.63,0,0,1-1.11,1.56c-.51.48-1,.91-1.47,1.29a7.07,7.07,0,0,1-1.25.85l.09.62a2.09,2.09,0,0,0,.76.84q.49.31,1.47-.4a18.7,18.7,0,0,1-.17,3.87,8,8,0,0,0,.36,3.6l2,3.91a9.69,9.69,0,0,1,.58,2c.21,1,.46,2,.76,3.07a24.64,24.64,0,0,1,.71,3.87l-6.32-1.06c-.18-.06-.27.06-.27.36a1.53,1.53,0,0,0,.09.62,6.93,6.93,0,0,0,.8.93,7,7,0,0,1,.8.93l.18.36.18.36a8.43,8.43,0,0,1,.31,1.29,8.58,8.58,0,0,0,.31,1.29,3.44,3.44,0,0,0,1.16,1c.65.42,1,.59,1.16.53l.18.36a.18.18,0,0,1-.09.27,4.56,4.56,0,0,0,1.87-1.6,5,5,0,0,1,2-1.69l1.07-.53.36,3.82,1.24-.62,1.78,3.56c1.3-.65,1.92-.89,1.87-.71a6.61,6.61,0,0,0,.89,2.22l.89-.45q.35-.18,2.27.53c1.27.47,2.21.86,2.8,1.15a6.25,6.25,0,0,1,1.16.75c.59.45.95.64,1.07.58a4.65,4.65,0,0,0,1.73-.76q1.29-.75,1.64-.93a3.44,3.44,0,0,1,1.33.22,3.34,3.34,0,0,0,1.33.22q.27.09,1.38-.58c.74-.44,1.17-.7,1.29-.76a9.85,9.85,0,0,0,2-.45q1.55-.45,1.73-.54l2.67-1.34q2-1,4.13-2t4.13-2l2.67-1.34,1.16,2.31a2,2,0,0,0,.62-2.54,3.22,3.22,0,0,1,.35-3.07,21.87,21.87,0,0,1,5-4.72,41.33,41.33,0,0,0,5.25-4.19c.18-.23.56-.73,1.15-1.47a7.39,7.39,0,0,1,1.07-1.2l.36-.18a.4.4,0,0,0,.22-.22.41.41,0,0,1,.22-.22.17.17,0,0,0,.27.09l.36-.18.53-.27a2.17,2.17,0,0,0,.71.09,1.74,1.74,0,0,0,.8-.18l2.67-1.34a15.9,15.9,0,0,1,2.67-.23l2.31,0a5.67,5.67,0,0,1,1.69,1.38,10.21,10.21,0,0,1,1.34,1.56l.89-.45a.57.57,0,0,0,0,.44.18.18,0,0,1-.09.27c.06.12,0,.42-.22.89s-.34.8-.4,1a5.65,5.65,0,0,0,.44.67c.24.33.33.58.27.76a3.16,3.16,0,0,1-.62,2.09,4.39,4.39,0,0,1-1.6,1.47l-.27-.09a.58.58,0,0,1,0-.44q.09-.26.35-1.51a4.74,4.74,0,0,1,.53-1.6l-.36-.71a2.33,2.33,0,0,0-2.31-1.07,1.81,1.81,0,0,0-.31,1.6q.22.89.31,1.51a17.16,17.16,0,0,1-2.49,1.69,17.84,17.84,0,0,0-2.49,1.69,3,3,0,0,0-.89.89,3.48,3.48,0,0,1-.71.8l.62,1.24a7.35,7.35,0,0,0,1,1.51,1.77,1.77,0,0,0,1.6.53,2.42,2.42,0,0,0-1.29.76,3.49,3.49,0,0,0-1,1.29q-.18.09.58,1.16t.67,1.33a2.5,2.5,0,0,1-1,2c-.71.65-.74,1.63-.09,2.94l-.18.09a12.54,12.54,0,0,0-1.2-1.73,9.84,9.84,0,0,0-1.29-1.47,2.15,2.15,0,0,1-1.69.18,1.69,1.69,0,0,0-.4.31,1.56,1.56,0,0,1-.4.31l.36.27a6.22,6.22,0,0,0,.31,1.51,6.51,6.51,0,0,1,.31,1.51l-.53.27a10.41,10.41,0,0,1-.93,1.47,5.12,5.12,0,0,1-1.2,1.38c-.06.18-.34.36-.84.54a10.5,10.5,0,0,0-1.11.45,8.4,8.4,0,0,1-1.24,1.51,8.51,8.51,0,0,1-1.51,1.42.58.58,0,0,1-.27.36l-.36.18a6,6,0,0,1-2.45.67A4.38,4.38,0,0,0,7274.27,7215.4Zm.8-2a7.5,7.5,0,0,0,2.4-1.87,7.47,7.47,0,0,1,2.4-1.87,8.1,8.1,0,0,0-.67-.89c-.39-.47-.81-1-1.29-1.47a16.2,16.2,0,0,0-1.47-1.38c-.51-.41-.82-.59-.93-.53l-.27.36v.89a1.53,1.53,0,0,0,.09.62,3.12,3.12,0,0,0-.13.62q0,.36-.22.45a6.36,6.36,0,0,1-.8.84,4.26,4.26,0,0,1-.89.67Z" transform="translate(-7071.5 -7071.5)"/></svg>